<svg width="18" height="18" viewBox="0 0 18 18" fill="none" xmlns="http://www.w3.org/2000/svg">
<path fill-rule="evenodd" clip-rule="evenodd" d="M0 0.199634C0 0.0891774 0.0895431 -0.000366211 0.2 -0.000366211H1C1.11046 -0.000366211 1.2 0.0891768 1.2 0.199634V16.5996C1.2 16.7101 1.28954 16.7996 1.4 16.7996H17.8C17.9105 16.7996 18 16.8892 18 16.9996V17.7996C18 17.9101 17.9105 17.9996 17.8 17.9996H0.5C0.223858 17.9996 0 17.7758 0 17.4996V0.199634ZM15 4.19963C15 4.08918 15.0895 3.99963 15.2 3.99963H16.3C16.4105 3.99963 16.5 4.08918 16.5 4.19963V14.7996C16.5 14.9101 16.4105 14.9996 16.3 14.9996H15.2C15.0895 14.9996 15 14.9101 15 14.7996V4.19963ZM11.2 -0.000366211C11.0895 -0.000366211 11 0.0891766 11 0.199634V14.7996C11 14.9101 11.0895 14.9996 11.2 14.9996H12.3C12.4105 14.9996 12.5 14.9101 12.5 14.7996V0.199634C12.5 0.0891768 12.4105 -0.000366211 12.3 -0.000366211H11.2ZM3 5.19963C3 5.08918 3.08954 4.99963 3.2 4.99963H4.3C4.41046 4.99963 4.5 5.08918 4.5 5.19963V14.7996C4.5 14.9101 4.41046 14.9996 4.3 14.9996H3.2C3.08954 14.9996 3 14.9101 3 14.7996V5.19963ZM7.2 7.99963C7.08954 7.99963 7 8.08918 7 8.19963V14.7996C7 14.9101 7.08954 14.9996 7.2 14.9996H8.3C8.41046 14.9996 8.5 14.9101 8.5 14.7996V8.19963C8.5 8.08918 8.41046 7.99963 8.3 7.99963H7.2Z" fill="#666666"/>
</svg>
