<svg width="33" height="10" viewBox="0 0 33 10" fill="none" xmlns="http://www.w3.org/2000/svg">
<path d="M3.138 8.99951V1.20551H0.12V0.359511H7.038V1.20551H4.02V8.99951H3.138ZM9.74522 9.17951C9.10122 9.17951 8.55122 9.03351 8.09522 8.74151C7.63922 8.44951 7.28922 8.04551 7.04522 7.52951C6.80122 7.01351 6.67922 6.42151 6.67922 5.75351C6.67922 5.07351 6.80322 4.47751 7.05122 3.96551C7.29922 3.45351 7.65122 3.05551 8.10722 2.77151C8.56722 2.48351 9.11322 2.33951 9.74522 2.33951C10.3932 2.33951 10.9452 2.48551 11.4012 2.77751C11.8612 3.06551 12.2112 3.46751 12.4512 3.98351C12.6952 4.49551 12.8172 5.08551 12.8172 5.75351C12.8172 6.43351 12.6952 7.03151 12.4512 7.54751C12.2072 8.05951 11.8552 8.45951 11.3952 8.74751C10.9352 9.03551 10.3852 9.17951 9.74522 9.17951ZM9.74522 8.33351C10.4652 8.33351 11.0012 8.09551 11.3532 7.61951C11.7052 7.13951 11.8812 6.51751 11.8812 5.75351C11.8812 4.96951 11.7032 4.34551 11.3472 3.88151C10.9952 3.41751 10.4612 3.18551 9.74522 3.18551C9.26122 3.18551 8.86122 3.29551 8.54522 3.51551C8.23322 3.73151 7.99922 4.03351 7.84322 4.42151C7.69122 4.80551 7.61522 5.24951 7.61522 5.75351C7.61522 6.53351 7.79522 7.15951 8.15522 7.63151C8.51522 8.09951 9.04522 8.33351 9.74522 8.33351ZM21.8688 8.99951L21.8748 4.74551C21.8748 4.24551 21.7348 3.85351 21.4548 3.56951C21.1788 3.28151 20.8268 3.13751 20.3988 3.13751C20.1548 3.13751 19.9168 3.19351 19.6848 3.30551C19.4528 3.41751 19.2608 3.59751 19.1088 3.84551C18.9608 4.09351 18.8868 4.41751 18.8868 4.81751L18.3648 4.66751C18.3528 4.20351 18.4428 3.79751 18.6348 3.44951C18.8308 3.10151 19.0988 2.83151 19.4388 2.63951C19.7828 2.44351 20.1708 2.34551 20.6028 2.34551C21.2548 2.34551 21.7768 2.54751 22.1688 2.95151C22.5608 3.35151 22.7568 3.89351 22.7568 4.57751L22.7508 8.99951H21.8688ZM14.1348 8.99951V2.51951H14.9268V4.11551H15.0228V8.99951H14.1348ZM18.0108 8.99951L18.0168 4.80551C18.0168 4.28951 17.8788 3.88351 17.6028 3.58751C17.3308 3.28751 16.9708 3.13751 16.5228 3.13751C16.0748 3.13751 15.7128 3.29151 15.4368 3.59951C15.1608 3.90351 15.0228 4.30951 15.0228 4.81751L14.4948 4.52951C14.4948 4.11351 14.5928 3.74151 14.7888 3.41351C14.9848 3.08151 15.2528 2.82151 15.5928 2.63351C15.9328 2.44151 16.3188 2.34551 16.7508 2.34551C17.1628 2.34551 17.5288 2.43351 17.8488 2.60951C18.1728 2.78551 18.4268 3.04151 18.6108 3.37751C18.7948 3.71351 18.8868 4.12151 18.8868 4.60151L18.8808 8.99951H18.0108ZM23.7127 8.99951L26.6887 0.359511H27.8587L30.8347 8.99951H29.9167L27.0907 0.851511H27.4387L24.6307 8.99951H23.7127ZM25.0387 6.90551V6.07751H29.5027V6.90551H25.0387ZM32.0381 1.28951V0.299511H32.9201V1.28951H32.0381ZM32.0381 8.99951V2.51951H32.9201V8.99951H32.0381Z" fill="#0074C0"/>
</svg>
