<svg width="63" height="48" viewBox="0 0 63 48" fill="none" xmlns="http://www.w3.org/2000/svg">
<path d="M35.6302 4.88394C35.3302 4.96836 34.4417 5.12515 33.6686 5.23369C25.0956 6.45178 19.5686 7.80253 13.5571 10.1905C9.31094 11.8789 3.18401 14.496 3.04555 14.6769C2.8494 14.9543 2.8494 15.5573 3.04555 15.8226C3.12632 15.9432 3.33401 16.088 3.50709 16.1483C3.86478 16.293 4.13017 16.1965 7.78786 14.5322C12.7379 12.289 16.384 10.7814 16.384 10.9865C16.384 11.0468 15.8417 12.0839 15.184 13.29C14.5263 14.5081 13.8802 15.7382 13.7302 16.0277C13.2571 17.0045 12.5071 19.103 12.334 19.899C12.1263 20.8759 12.1263 24.2528 12.334 25.2658C13.1994 29.6196 15.4263 31.899 19.4417 32.5623C19.8225 32.6226 20.7109 32.7312 21.4032 32.8035C22.1071 32.8759 23.2609 33.0206 23.9763 33.1292L25.2686 33.3221L25.5571 33.0447C25.9263 32.6829 25.9494 32.092 25.6032 31.7664C25.384 31.5613 25.1648 31.5372 23.4917 31.5251C21.6456 31.5131 19.8917 31.3804 20.0186 31.2598C20.0532 31.2236 20.5609 31.0186 21.1609 30.8136C22.4994 30.3432 23.3302 29.8367 24.3456 28.8598C25.0032 28.2206 26.0532 26.7613 26.5263 25.8327C26.6417 25.6156 26.7571 25.5674 27.2071 25.5674C28.2917 25.5674 29.3302 25.7241 29.3879 25.893C29.4225 25.9774 29.0763 27.0387 28.6148 28.2447C28.1532 29.4508 27.7725 30.6086 27.784 30.8136C27.7956 31.2719 28.3725 31.8387 28.834 31.8387C29.584 31.8387 30.0571 30.9704 30.934 27.9432C31.1879 27.0628 31.4302 26.2669 31.4763 26.1704C31.5225 26.0739 31.5802 27.304 31.6148 28.9081C31.6725 31.6216 31.684 31.8387 31.9148 32.1643C32.0532 32.3573 32.3302 32.5503 32.5725 32.6106L32.9994 32.7191L31.1186 33.7322C28.0263 35.4086 26.4456 36.3734 24.8648 37.5432C23.2263 38.7613 21.1956 40.7633 21.0686 41.2819C20.9648 41.7282 21.2532 42.2829 21.6456 42.3794C22.0379 42.488 22.3263 42.2829 23.0994 41.3543C24.3109 39.895 26.9417 37.8086 29.2494 36.4578C30.7263 35.6015 33.9571 33.8528 34.8225 33.4548L35.5609 33.1292L35.8032 33.4307C36.2186 33.9493 36.4725 34.0096 38.0994 34.0096C38.9417 34.0096 39.8302 34.0699 40.084 34.1422C40.4417 34.2387 40.6263 34.2267 41.0071 34.0819C41.8379 33.7684 46.6148 33.2739 46.6148 33.503C46.6148 33.5754 46.384 34.5161 46.1071 35.6015C45.3571 38.5201 44.9763 40.2568 44.9071 41.089C44.8609 41.8005 44.8725 41.8488 45.2071 42.1985C45.7725 42.8015 46.5686 42.6447 46.9494 41.8849C47.0186 41.7402 47.0763 41.0407 47.0763 40.305C47.0763 39.5814 47.1571 38.5322 47.2609 37.9774C47.5956 36.0839 48.4379 33.5151 49.0148 32.6347C49.1879 32.3694 49.3494 31.9111 49.3956 31.5493C49.4417 31.2116 49.6148 30.4397 49.7879 29.8488C50.134 28.6066 50.1917 27.4005 49.9148 26.9664C49.8225 26.8096 49.5571 26.5925 49.3148 26.4719C48.8186 26.2307 48.7956 26.2307 47.0186 27.0146C45.9802 27.4729 41.6186 29.0648 41.4225 29.0648C41.3763 29.0648 41.3071 28.1603 41.2725 27.0387C41.2148 24.7955 41.0532 23.9995 40.5109 23.3724C40.2571 23.0709 40.084 22.9865 39.5994 22.9382C39.2417 22.9141 38.8609 22.9503 38.6532 23.0347C38.1571 23.2518 36.4725 25.1573 34.8686 27.3161L33.5302 29.1131L33.4379 28.703C33.3917 28.4739 33.4032 26.6769 33.4725 24.7111C33.6686 18.9583 33.5763 18.4518 32.434 18.4518C31.7648 18.4518 31.5109 18.8498 31.2802 20.2608C31.0725 21.4789 30.4609 23.5653 30.2417 23.7945C30.1725 23.8669 29.5148 23.9392 28.7532 23.9754L27.3802 24.0357L27.5532 23.3121C27.7725 22.4558 27.6456 21.8407 27.1494 21.2136C26.7225 20.6829 26.2494 20.5141 25.0148 20.4297C24.4263 20.3935 23.8032 20.3091 23.6186 20.2367C23.3763 20.1402 23.1917 20.1523 22.8109 20.3091C22.4879 20.4297 22.0263 20.502 21.5071 20.4779C21.0686 20.4658 20.5956 20.5262 20.4686 20.5985C20.0763 20.8156 19.6148 21.4548 19.6148 21.7804C19.6148 22.2387 19.1648 22.3955 18.5417 22.1422C17.6879 21.8045 17.1686 21.9131 16.8686 22.5161C16.6725 22.89 16.6956 23.2035 16.9609 23.5533C17.0879 23.7221 17.1917 23.8789 17.1917 23.9151C17.1917 23.9392 16.8456 24.3975 16.4302 24.9161C15.7263 25.8086 14.7686 27.5452 14.7686 27.9432C14.7686 28.2447 14.5494 27.9915 14.3071 27.4005C13.9032 26.4478 13.6148 25.097 13.4994 23.5774C13.3032 21.2256 13.5802 19.8628 14.7225 17.3061C15.1494 16.3412 16.9725 13.0005 17.9648 11.3724L18.7609 10.0699L19.8571 9.68394C23.434 8.41761 32.0417 6.70505 35.6302 6.54826C37.084 6.4759 37.1763 6.46384 37.384 6.17439C37.6956 5.7764 37.6725 5.35429 37.3263 5.00454C37.0033 4.6548 36.5186 4.63068 35.6302 4.88394ZM39.5071 25.4829C39.3225 25.905 39.2879 26.3272 39.2879 27.9553V29.9211L36.8648 30.9824C35.5379 31.5613 34.2802 32.1282 34.0725 32.2367C33.8648 32.3573 33.6802 32.4417 33.6456 32.4417C33.6225 32.4417 33.6917 32.1885 33.7956 31.887C33.9456 31.501 34.2917 31.0427 35.0302 30.295C35.6994 29.6196 36.4379 28.691 37.0956 27.69C38.2956 25.8809 39.5879 24.4096 39.6571 24.7593C39.6917 24.8799 39.6225 25.2055 39.5071 25.4829ZM21.6456 25.0246C22.4994 25.1935 23.3879 25.3262 23.6071 25.3262C23.8609 25.3262 23.9994 25.3865 23.9994 25.4829C23.9994 25.8086 22.3032 27.3643 21.5532 27.7382C20.734 28.1362 17.6648 28.9081 17.3648 28.7754C16.9379 28.6066 17.5148 26.9905 18.3571 26.0015C18.9109 25.3503 19.6725 24.7231 19.9263 24.7231C20.0071 24.7231 20.7917 24.8558 21.6456 25.0246ZM47.9071 29.306C47.8032 29.6679 47.6763 30.0297 47.6302 30.102C47.5263 30.2588 46.3725 30.5121 43.8109 30.9342C41.4456 31.3201 41.4225 31.3201 41.4225 30.898C41.4225 30.5603 41.4686 30.5362 43.3609 29.8729C45.5071 29.1251 47.8956 28.4498 48.0225 28.5704C48.0686 28.6066 48.0225 28.9442 47.9071 29.306Z" fill="#0074C0"/>
<path d="M47.7572 10.6729C47.3764 10.89 47.1457 11.4447 47.2495 11.9272C47.4226 12.7473 48.5303 13.0849 49.0957 12.4819C49.3149 12.2648 49.3841 12.0598 49.3841 11.6498C49.3841 11.2035 49.3264 11.0709 49.0264 10.8055C48.6341 10.4558 48.2072 10.4196 47.7572 10.6729Z" fill="#0074C0"/>
<path d="M50.2609 18.5242C50.0763 18.7292 49.9609 18.9824 49.9609 19.1995C49.9609 19.6578 50.3532 21.6116 50.8263 23.5774C51.3802 25.8206 52.2109 29.692 52.5571 31.6458C52.7879 32.9603 53.1802 36.5905 53.1917 37.4709C53.1917 37.5432 53.3302 37.7724 53.4917 37.9774C54.0225 38.6407 55.1186 38.4116 55.384 37.5794C55.4763 37.2659 55.4532 37.0608 55.2686 36.4699C54.8648 35.2759 54.3917 33.0327 53.7686 29.3664C53.434 27.4367 52.8917 24.2769 52.5571 22.3231C51.9917 18.9824 51.934 18.7533 51.6456 18.488C51.2186 18.102 50.6532 18.1141 50.2609 18.5242Z" fill="#0074C0"/>
</svg>
