<svg width="24" height="24" viewBox="0 0 24 24" fill="none" xmlns="http://www.w3.org/2000/svg">
<path d="M6.7543 0.0991793C6.61836 0.150742 6.40742 0.253867 6.28555 0.328867C6.16836 0.408554 5.37617 1.16324 4.52773 2.01168L2.99023 3.55387L10.5512 9.73668C14.709 13.1351 18.159 15.9523 18.2105 15.9992C18.3043 16.0742 18.4027 16.0273 20.7887 14.7992C23.5777 13.3695 23.484 13.4351 23.484 12.9336C23.484 12.6664 23.4746 12.6476 23.2637 12.4273C23.0152 12.1789 8.87305 0.497617 8.5918 0.314804C8.12305 0.000741005 7.29336 -0.093009 6.7543 0.0991793ZM17.9715 11.4382C18.398 11.7195 18.384 12.3711 17.9434 12.5961C17.4887 12.8304 16.9684 12.5211 16.9684 12.0054C16.9684 11.6304 17.2496 11.3492 17.6246 11.3492C17.7512 11.3492 17.8871 11.3867 17.9715 11.4382Z" fill="#666666"/>
<path d="M1.27966 5.26481C0.492157 6.07106 0.323407 6.33824 0.229657 6.92418C0.135907 7.49137 0.304657 8.14293 0.660907 8.58824C0.778095 8.73824 12.1781 18.0664 12.7406 18.4742C12.8672 18.5679 12.9609 18.5914 13.1672 18.5914C13.4156 18.5914 13.5187 18.5445 15.1968 17.6773C16.1718 17.1757 16.964 16.7492 16.9547 16.7304C16.9359 16.6695 2.08591 4.55231 2.03435 4.55231C2.00622 4.55231 1.66872 4.87574 1.27966 5.26481Z" fill="#666666"/>
<path d="M5.67188 15.7039V16.9273H3.53906H1.40625V16.2101C1.40625 15.5914 1.39219 15.4789 1.31719 15.3617C1.17188 15.1461 0.99375 15.0523 0.703125 15.0523C0.4125 15.0523 0.234375 15.1461 0.0890625 15.3617C0.0046875 15.4929 0 15.6476 0 19.0601C0 22.4726 0.0046875 22.6273 0.0890625 22.7586C0.234375 22.9742 0.4125 23.0679 0.703125 23.0679C0.99375 23.0679 1.17188 22.9742 1.31719 22.7586C1.39219 22.6414 1.40625 22.5289 1.40625 21.882V21.1461H4.45781C7.81875 21.1461 7.7625 21.1507 8.38594 20.8507C8.81719 20.6398 9.35625 20.1054 9.57656 19.6648C9.80625 19.2054 9.89062 18.8445 9.89062 18.3289L9.88594 17.8882L7.86563 16.2476C6.75469 15.3429 5.80781 14.5789 5.76094 14.5461C5.67656 14.4851 5.67188 14.5273 5.67188 15.7039Z" fill="#666666"/>
<path d="M19.509 16.9695C17.5637 17.9679 15.9746 18.807 15.9746 18.8304C15.9699 18.8726 17.9527 20.5414 18.5293 20.982C18.7824 21.1742 18.8293 21.1929 19.0731 21.1929C19.2981 21.1929 19.3777 21.1695 19.5277 21.057C19.7434 20.8976 23.8121 16.8148 23.9246 16.6461C24.0277 16.4867 24.0231 16.0507 23.9152 15.8914C23.8215 15.7507 23.1418 15.1461 23.0809 15.1507C23.0574 15.1507 21.4496 15.9711 19.509 16.9695Z" fill="#666666"/>
</svg>
